# AST/ASF file generated using VICON BodyLanguage
# -----------------------------------------------
:version 1.10
:name VICON
:units
  mass 1.0
  length 0.45
  angle deg
:documentation
   .ast/.asf automatically generated from VICON data using
   VICON BodyBuilder and BodyLanguage model FoxedUp or BRILLIANT.MOD
:root
   order TX TY TZ RX RY RZ
   axis XYZ
   position 0 0 0  
   orientation 0 0 0 
:bonedata
  begin
     id 1 
     name lhipjoint
     direction 0.671379 -0.66392 0.329334 
     length 2.38647 
     axis 0 0 0  XYZ
  end
  begin
     id 2 
     name lfemur
     direction 0.34202 -0.939693 0  
     length 6.48179  
     axis 0 0 20  XYZ
    dof rx ry rz
    limits (-160.0 20.0)
           (-70.0 70.0)
           (-60.0 70.0)
  end
  begin
     id 3 
     name ltibia
     direction 0.34202 -0.939693 0   
     length 6.86524   
     axis 0 0 20   XYZ
    dof rx
    limits (-10.0 170.0)
  end
  begin
     id 4 
     name lfoot
     direction 0.204886 -0.562919 0.800715   
     length 1.73031   
     axis -90 7.62852e-016 20   XYZ
    dof rx rz
    limits (-45.0 90.0)
           (-70.0 20.0)
  end
  begin
     id 5 
     name ltoes
     direction 1.53548e-011 -4.21841e-011 1   
     length 0.828161   
     axis -90 7.62852e-016 20   XYZ
    dof rx
    limits (-90.0 20.0)
  end
  begin
     id 6 
     name rhipjoint
     direction -0.662732 -0.670855 0.332775   
     length 2.3618  
     axis 0 0 0  XYZ 
  end
  begin
     id 7 
     name rfemur
     direction -0.34202 -0.939693 0   
     length 6.3025   
     axis 0 0 -20   XYZ
    dof rx ry rz
    limits (-160.0 20.0)
           (-70.0 70.0)
           (-70.0 60.0)
  end
  begin
     id 8 
     name rtibia
     direction -0.34202 -0.939693 0   
     length 6.8732   
     axis 0 0 -20   XYZ
    dof rx
    limits (-10.0 170.0)
 end
 begin
     id 9 
     name rfoot
     direction -0.173856 -0.477665 0.861168   
     length 1.54784  
     axis -90 -7.62852e-016 -20   XYZ
    dof rx rz
    limits (-45.0 90.0)
           (-20.0 70.0)
  end
  begin
     id 10 
     name rtoes
     direction -1.53562e-011 -4.21802e-011 1   
     length 0.759618   
     axis -90 -7.62852e-016 -20   XYZ
    dof rx
    limits (-90.0 20.0)
  end
  begin
     id 11 
     name lowerback
     direction -0.0278357 0.999497 -0.0151789   
     length 1.97203   
     axis 0 0 0   XYZ
    dof rx ry rz
    limits (-20.0 45.0)
           (-30.0 30.0)
           (-30.0 30.0)
  end
  begin
     id 12 
     name upperback
     direction -0.00360622 0.997542 0.0699804   
     length 1.94709   
     axis 0 0 0   XYZ
    dof rx ry rz
    limits (-20.0 45.0)
           (-30.0 30.0)
           (-30.0 30.0)
  end
  begin
     id 13 
     name thorax
     direction 0.00907706 0.997048 0.0762461   
     length 1.95722   
     axis 0 0 0   XYZ
    dof rx ry rz
    limits (-20.0 45.0)
           (-30.0 30.0)
           (-30.0 30.0)
  end
  begin
     id 14 
     name lowerneck
     direction -0.0481835 0.99872 -0.0153927   
     length 1.63078   
     axis 0 0 0   XYZ
    dof rx ry rz
    limits (-20.0 45.0)
           (-30.0 30.0)
           (-30.0 30.0)
  end
  begin
     id 15 
     name upperneck
     direction 0.0859716 0.979226 -0.183644   
     length 1.62591   
     axis 0 0 0   XYZ
    dof rx ry rz
    limits (-20.0 45.0)
           (-30.0 30.0)
           (-30.0 30.0)
  end
  begin
     id 16
     name head
     direction 0.0324821 0.997629 -0.0606773  
     length 1.64811  
     axis 0 0 0   XYZ
    dof rx ry rz
    limits (-20.0 45.0)
           (-30.0 30.0)
           (-30.0 30.0)
  end
  begin
     id 17 
     name lclavicle
     direction 0.939609 0.311019 0.142835  
     length 3.70647  
     axis 0 0 0   XYZ
    dof ry rz
    limits (-20.0 10.0)
           (0.0 20.0)
  end
  begin
     id 18 
     name lhumerus
     direction 1 -4.48963e-011 -1.59838e-027   
     length 4.59207   
     axis 180 -30 -90   XYZ
    dof rx ry rz
    limits (-60.0 90.0)
           (-90.0 90.0)
           (-90.0 90.0)
  end
  begin
     id 19
     name lradius
     direction 1 -4.48957e-011 -1.3483e-026   
     length 2.98109   
     axis 180 -30 -90   XYZ
    dof rx
    limits (-10.0 170.0)
  end
  begin
     id 20
     name lwrist
     direction 1 -4.48954e-011 -3.11579e-026   
     length 1.49055   
     axis 2.00652e-014 90 90   XYZ
    dof ry
    limits (-180.0 0.0)
 end
  begin
     id 21 
     name lhand
     direction 1 -4.4911e-011 -6.23158e-026   
     length 0.480203   
     axis 3.97628e-014 90 90   XYZ
    dof rx rz
    limits (-90.0 90.0)
           (-45.0 45.0)
  end
  begin
     id 22 
     name lfingers
     direction 1 -4.48893e-011 -1.24632e-025   
     length 0.387152   
     axis 7.95256e-014 90 90   XYZ
    dof rx
    limits (0.0 90.0)
  end
  begin
     id 23
     name lthumb
     direction 0.707107 -6.35013e-011 0.707107   
     length 0.555875   
     axis -90 45 2.85299e-015   XYZ
    dof rx rz
    limits (-45.0 45.0)
           (-45.0 45.0)
  end
  begin
     id 24 
     name rclavicle
     direction -0.950396 0.30392 0.0661859   
     length 3.70894  
     axis 0 0 0   XYZ 
    dof ry rz
    limits (-10.0 20.0)
           (-20.0 0.0)
  end
  begin
     id 25 
     name rhumerus
     direction -1 -4.48957e-011 -2.96677e-027  
     length 4.76508   
     axis 180 30 90   XYZ
    dof rx ry rz
    limits (-90.0 60.0)
           (-90.0 90.0)
           (-90.0 90.0)
  end
  begin
     id 26 
     name rradius
     direction -1 -4.48974e-011 -1.44501e-026   
     length 2.78902   
     axis 180 30 90   XYZ
    dof rx
    limits (-10.0 170.0)
  end
  begin
     id 27 
     name rwrist
     direction -1 -4.48978e-011 -3.11579e-026   
     length 1.39451   
     axis 2.00652e-014 -90 -90   XYZ
    dof ry
    limits (-180.0 0.0)
  end
  begin
     id 28
     name rhand
     direction -1 -4.48956e-011 -6.23158e-026   
     length 0.721303   
     axis 3.97628e-014 -90 -90   XYZ
    dof rx rz
    limits (-90.0 90.0)
           (-45.0 45.0)
  end
  begin
     id 29
     name rfingers
     direction -1 -4.4899e-011 -1.24632e-025   
     length 0.581533   
     axis 7.95256e-014 -90 -90   XYZ
    dof rx
    limits (0.0 90.0)
  end
  begin
     id 30
     name rthumb
     direction -0.707107 -6.34911e-011 0.707107   
     length 0.834968   
     axis -90 -45 -2.85299e-015   XYZ
    dof rx rz
    limits (-45.0 45.0)
           (-45.0 45.0)
  end
:hierarchy
  begin
    root lhipjoint rhipjoint lowerback
    lhipjoint lfemur
    lfemur ltibia
    ltibia lfoot
    lfoot ltoes
    rhipjoint rfemur
    rfemur rtibia
    rtibia rfoot
    rfoot rtoes
    lowerback upperback
    upperback thorax
    thorax lowerneck lclavicle rclavicle
    lowerneck upperneck
    upperneck head
    lclavicle lhumerus
    lhumerus lradius
    lradius lwrist
    lwrist lhand lthumb
    lhand lfingers
    rclavicle rhumerus
    rhumerus rradius
    rradius rwrist
    rwrist rhand rthumb
    rhand rfingers
  end

#!OML:ASF I:\salsa\salsa 7_09\Patient 1\Session 1\dancerfemale.ASF
:FULLY-SPECIFIED
:DEGREES
1120
root 14.8907 16.0022 2.17919 -21.2316 -1136.74 -1052.54
lowerback 6.38526 1.06569 -11.6711
upperback -5.94411 -0.469897 -4.93686
thorax -10.0693 0.311889 1.26599
lowerneck 13.1527 -13.7288 -5.70782
upperneck -5.97754 -18.3981 19.1033
head -1.53222 -10.0841 7.33802
rclavicle -3.27995e-014 2.00773e-014
rhumerus -66.5909 -16.6257 -76.4811
rradius 126.884
rwrist -66.2114
rhand -5.99159 59.1536
rfingers 7.12502
rthumb 19.8404 -689.854
lclavicle -3.27995e-014 2.00773e-014
lhumerus -43.3057 0.171768 70.7704
lradius 91.4176
lwrist -10.6228
lhand -17.859 258.215
lfingers 7.12502
lthumb 8.40643 -131.597
rfemur -23.2912 -0.328463 6.37936
rtibia 53.1236
rfoot 18.3151 -35.1205
rtoes 21.6122
lfemur -16.2924 14.0804 -36.1117
ltibia 26.1759
lfoot -13.0859 -4.32112
ltoes -52.3974
1121
root 15.0485 16.0118 2.11846 -22.3738 -1140 -1052.29
lowerback 6.38546 1.16974 -9.17995
upperback -5.808 -0.0649226 -5.24247
thorax -9.89589 0.312841 -0.478801
lowerneck 12.6628 -12.8958 -5.09561
upperneck -4.71769 -17.3643 18.9754
head -1.29043 -9.52556 7.13441
rclavicle 3.02401e-014 -7.4743e-014
rhumerus -69.2725 -15.3083 -74.7676
rradius 127.248
rwrist -65.7159
rhand -7.55832 60.8185
rfingers 7.12502
rthumb 18.3338 -688.338
lclavicle 3.02401e-014 -7.4743e-014
lhumerus -40.0211 5.69454 70.6338
lradius 94.0848
lwrist -1.39065
lhand -27.0197 257.867
lfingers 7.12502
lthumb -0.439143 -132.112
rfemur -21.2677 -1.17544 7.95019
rtibia 54.0127
rfoot 20.0299 -36.1214
rtoes 20.8394
lfemur -16.0702 14.6295 -34.6791
ltibia 25.8499
lfoot -12.9934 -1.93702
ltoes -51.152
1122
root 15.1978 16.0175 2.05159 -24.8067 -1142.83 -1050.21
lowerback 6.05172 1.3489 -7.73767
upperback -5.70147 0.326147 -5.76902
thorax -9.56402 0.366601 -1.88273
lowerneck 12.3987 -12.1189 -4.23464
upperneck -3.80925 -16.3279 18.8433
head -1.20137 -8.98723 6.93154
rclavicle -1.78409e-014 6.99722e-014
rhumerus -71.4698 -13.9572 -72.7072
rradius 127.778
rwrist -64.6878
rhand -9.43961 60.5702
rfingers 7.12502
rthumb 16.5232 -688.746
lclavicle -1.78409e-014 6.99722e-014
lhumerus -37.0666 10.1582 71.1321
lradius 96.7456
lwrist 8.0986
lhand -33.9924 257.619
lfingers 7.12502
lthumb -7.17219 -132.239
rfemur -19.419 -1.85023 8.15211
rtibia 54.3888
rfoot 22.3236 -36.1061
rtoes 18.8124
lfemur -16.3321 14.9596 -34.2077
ltibia 25.8608
lfoot -13.1104 0.150745
ltoes -50.6494
1123
root 15.3369 16.0248 1.97694 -29.1209 -1145.3 -1045.63
lowerback 5.47233 1.39322 -7.54978
upperback -5.79095 0.401446 -6.21488
thorax -9.31842 0.356566 -2.46237
lowerneck 12.0994 -11.1797 -3.45128
upperneck -2.97598 -15.0681 18.2376
head -1.17261 -8.30984 6.59333
rclavicle -2.17669e-014 3.26007e-014
rhumerus -72.8564 -11.687 -70.462
rradius 128.058
rwrist -63.4964
rhand -10.4248 59.3744
rfingers 7.12502
rthumb 15.5745 -690.019
lclavicle -2.17669e-014 3.26007e-014
lhumerus -35.1528 13.8968 71.8193
lradius 99.3628
lwrist 17.6424
lhand -39.0423 255.85
lfingers 7.12502
lthumb -12.0444 -133.784
rfemur -17.9769 -2.38007 7.0316
rtibia 54.1988
rfoot 23.1653 -36.7832
rtoes 12.5766
lfemur -17.0871 15.3108 -34.7403
ltibia 25.9372
lfoot -13.2509 1.83904
ltoes -50.8215
1124
root 15.4659 16.0342 1.89181 -34.0536 -1147.68 -1040.67
lowerback 5.11861 1.28558 -7.29052
upperback -5.81086 0.289195 -6.40191
thorax -9.12418 0.266479 -2.78027
lowerneck 11.4304 -10.0211 -3.16436
upperneck -1.89951 -13.6192 17.5442
head -0.985293 -7.4991 6.25629
rclavicle -4.06018e-014 -3.37934e-014
rhumerus -73.3309 -8.75264 -68.6185
rradius 128.404
rwrist -62.908
rhand -11.5445 58.3922
rfingers 7.12502
rthumb 14.4959 -691.081
lclavicle -4.06018e-014 -3.37934e-014
lhumerus -33.8676 17.1602 72.3568
lradius 101.613
lwrist 26.7256
lhand -41.6488 253.843
lfingers 7.12502
lthumb -14.5568 -135.627
rfemur -15.9956 -2.33278 6.01885
rtibia 53.0596
rfoot 23.442 -37.2973
rtoes 3.53086
lfemur -17.5902 15.4849 -34.8727
ltibia 25.9756
lfoot -13.2683 3.65038
ltoes -50.5062
1125
root 15.5839 16.0467 1.79241 -39.6142 -1150.04 -1035.22
lowerback 4.85852 1.36086 -6.90568
upperback -5.73737 0.440071 -6.55506
thorax -8.88077 0.300021 -3.16457
lowerneck 10.551 -9.07753 -2.59408
upperneck -0.916131 -12.4099 16.646
head -0.778183 -6.79706 5.80648
rclavicle -1.56543e-014 -3.77691e-014
rhumerus -73.3863 -6.30891 -66.7255
rradius 128.746
rwrist -63.4055
rhand -11.9219 57.5734
rfingers 7.12502
rthumb 14.1322 -691.926
lclavicle -1.56543e-014 -3.77691e-014
lhumerus -32.73 18.4931 73.0221
lradius 103.719
lwrist 35.0937
lhand -41.2535 249.9
lfingers 7.12502
lthumb -14.1759 -139.596
rfemur -13.5228 -1.78206 5.26334
rtibia 50.7345
rfoot 23.6493 -36.8158
rtoes -5.49467
lfemur -18.026 15.4806 -34.4832
ltibia 26.3078
lfoot -13.6538 5.51502
ltoes -49.0056
